<svg height="512pt" viewBox="-89 0 512 512.00096" width="512pt" xmlns="http://www.w3.org/2000/svg"><path d="m219 105.40625-51.714844-105.40625-51.714844 105.40625-115.570312 16.792969 83.640625 81.53125-19.746094 115.121093 58.4375-30.71875v53.550782l-53.019531 80.414062h-36.882812v89.902344h269.707031v-89.902344h-36.882813l-53.019531-80.414062v-53.550782l58.4375 30.71875-19.746094-115.121093 83.640625-81.53125zm53.171875 376.625h-209.773437v-29.964844h209.773437zm-42.8125-59.933594h-124.152344l40.175781-60.933594h43.800782zm-47.09375-90.902344h-29.964844v-58.820312l14.984375-7.878906 14.980469 7.878906zm48.605469-67.125-63.585938-33.429687-63.585937 33.429687 12.140625-70.804687-51.441406-50.140625 71.113281-10.335938 31.769531-64.753906 31.773438 64.753906 71.113281 10.335938-51.445313 50.140625zm0 0"/></svg>